<?xml version="1.0" encoding="UTF-8" standalone="no"?>
<!-- Generator: Adobe Illustrator 16.0.0, SVG Export Plug-In . SVG Version: 6.00 Build 0)  -->

<svg
   xmlns:dc="http://purl.org/dc/elements/1.1/"
   xmlns:cc="http://creativecommons.org/ns#"
   xmlns:rdf="http://www.w3.org/1999/02/22-rdf-syntax-ns#"
   xmlns:svg="http://www.w3.org/2000/svg"
   xmlns="http://www.w3.org/2000/svg"
   xmlns:sodipodi="http://sodipodi.sourceforge.net/DTD/sodipodi-0.dtd"
   xmlns:inkscape="http://www.inkscape.org/namespaces/inkscape"
   version="1.1"
   id="Capa_1"
   x="0px"
   y="0px"
   width="350.244px"
   height="350.244px"
   viewBox="0 0 350.244 350.244"
   style="enable-background:new 0 0 350.244 350.244;"
   xml:space="preserve"
   sodipodi:docname="Ambulance.svg"
   inkscape:version="0.92.2 (5c3e80d, 2017-08-06)"><metadata
     id="metadata4008"><rdf:RDF><cc:Work
         rdf:about=""><dc:format>image/svg+xml</dc:format><dc:type
           rdf:resource="http://purl.org/dc/dcmitype/StillImage" /></cc:Work></rdf:RDF></metadata><sodipodi:namedview
     pagecolor="#ffffff"
     bordercolor="#666666"
     borderopacity="1"
     objecttolerance="10"
     gridtolerance="10"
     guidetolerance="10"
     inkscape:pageopacity="0"
     inkscape:pageshadow="2"
     inkscape:window-width="1366"
     inkscape:window-height="715"
     id="namedview4004"
     showgrid="false"
     inkscape:zoom="0.67381599"
     inkscape:cx="-66.041769"
     inkscape:cy="175.12199"
     inkscape:window-x="-8"
     inkscape:window-y="-8"
     inkscape:window-maximized="1"
     inkscape:current-layer="Capa_1" /><g
     id="g3971"
     style="fill:#013365;fill-opacity:1"><g
       id="g3969"
       style="fill:#013365;fill-opacity:1"><path
         d="M75.246,224.219c-18.227,0-32.997,14.766-32.997,32.994s14.771,32.992,32.997,32.992    c18.232,0,32.999-14.764,32.999-32.992C108.245,238.985,93.478,224.219,75.246,224.219z M75.246,271.557    c-7.923,0-14.343-6.42-14.343-14.344c0-7.928,6.419-14.345,14.343-14.345s14.348,6.417,14.348,14.345    C89.594,265.137,83.169,271.557,75.246,271.557z"
         id="path3963"
         style="fill:#013365;fill-opacity:1" /><path
         d="M313.898,172.053c-12.098-3.146-19.02-5.123-23.771-14.298l-15.887-32.164c-4.754-9.175-17.094-16.683-27.428-16.683    h-24.648V79.052c0-10.457-8.557-19.013-19.014-19.013H19.013C8.555,60.039,0,68.595,0,79.052v161.141    c0,10.457,8.556,19.014,19.013,19.014h13.286c-0.03-0.662-0.051-1.326-0.051-1.994c0-23.707,19.289-42.992,42.997-42.992    c23.71,0,42.999,19.287,42.999,42.992c0,0.668-0.02,1.332-0.05,1.994h84.957c1.07,0,2.115-0.1,3.139-0.271    c-0.021-0.572-0.044-1.145-0.044-1.723c0-23.707,19.288-42.992,42.997-42.992s42.998,19.287,42.998,42.992    c0,0.668-0.02,1.332-0.051,1.994h39.268c10.336,0,18.787-8.455,18.787-18.787v-35.696    C350.244,174.663,323.943,174.663,313.898,172.053z M159.801,156.37c0,5.414-4.43,9.843-9.843,9.843h-20.422v20.421    c0,5.414-4.429,9.844-9.843,9.844H102.47c-5.414,0-9.843-4.43-9.843-9.844v-20.421H72.205c-5.414,0-9.843-4.429-9.843-9.843    v-17.223c0-5.414,4.429-9.843,9.843-9.843h20.422v-20.422c0-5.414,4.429-9.843,9.843-9.843h17.223    c5.414,0,9.843,4.429,9.843,9.843v20.422h20.422c5.413,0,9.843,4.429,9.843,9.843V156.37z M222.164,170.381V121.97h17.973    c9.191,0,20.174,6.68,24.402,14.844l14.135,28.619c1.035,1.998,2.188,3.608,3.494,4.948H222.164z"
         id="path3965"
         style="fill:#013365;fill-opacity:1" /><path
         d="M249.242,224.219c-18.227,0-32.997,14.766-32.997,32.994s14.771,32.992,32.997,32.992    c18.232,0,32.998-14.764,32.998-32.992C282.24,238.985,267.475,224.219,249.242,224.219z M249.242,271.557    c-7.924,0-14.344-6.42-14.344-14.344c0-7.928,6.42-14.345,14.344-14.345s14.348,6.417,14.348,14.345    C263.59,265.137,257.166,271.557,249.242,271.557z"
         id="path3967"
         style="fill:#013365;fill-opacity:1" /></g></g><g
     id="g3973" /><g
     id="g3975" /><g
     id="g3977" /><g
     id="g3979" /><g
     id="g3981" /><g
     id="g3983" /><g
     id="g3985" /><g
     id="g3987" /><g
     id="g3989" /><g
     id="g3991" /><g
     id="g3993" /><g
     id="g3995" /><g
     id="g3997" /><g
     id="g3999" /><g
     id="g4001" /></svg>