<?xml version="1.0" encoding="UTF-8" standalone="no"?>
<!-- Generator: Adobe Illustrator 16.0.0, SVG Export Plug-In . SVG Version: 6.00 Build 0)  -->

<svg
   xmlns:dc="http://purl.org/dc/elements/1.1/"
   xmlns:cc="http://creativecommons.org/ns#"
   xmlns:rdf="http://www.w3.org/1999/02/22-rdf-syntax-ns#"
   xmlns:svg="http://www.w3.org/2000/svg"
   xmlns="http://www.w3.org/2000/svg"
   xmlns:sodipodi="http://sodipodi.sourceforge.net/DTD/sodipodi-0.dtd"
   xmlns:inkscape="http://www.inkscape.org/namespaces/inkscape"
   version="1.1"
   id="Capa_1"
   x="0px"
   y="0px"
   width="350.244px"
   height="350.244px"
   viewBox="0 0 350.244 350.244"
   style="enable-background:new 0 0 350.244 350.244;"
   xml:space="preserve"
   sodipodi:docname="cssd.svg"
   inkscape:version="0.92.2 (5c3e80d, 2017-08-06)"><metadata
     id="metadata4008"><rdf:RDF><cc:Work
         rdf:about=""><dc:format>image/svg+xml</dc:format><dc:type
           rdf:resource="http://purl.org/dc/dcmitype/StillImage" /><dc:title></dc:title></cc:Work></rdf:RDF></metadata><sodipodi:namedview
     pagecolor="#ffffff"
     bordercolor="#666666"
     borderopacity="1"
     objecttolerance="10"
     gridtolerance="10"
     guidetolerance="10"
     inkscape:pageopacity="0"
     inkscape:pageshadow="2"
     inkscape:window-width="1366"
     inkscape:window-height="715"
     id="namedview4004"
     showgrid="false"
     inkscape:zoom="1.347632"
     inkscape:cx="95.422619"
     inkscape:cy="175.15342"
     inkscape:window-x="-8"
     inkscape:window-y="-8"
     inkscape:window-maximized="1"
     inkscape:current-layer="Capa_1" /><g
     id="g3973" /><g
     id="g3975" /><g
     id="g3977" /><g
     id="g3979" /><g
     id="g3981" /><g
     id="g3983" /><g
     id="g3985" /><g
     id="g3987" /><g
     id="g3989" /><g
     id="g3991" /><g
     id="g3993" /><g
     id="g3995" /><g
     id="g3997" /><g
     id="g3999" /><g
     id="g4001" /><path
     style="fill:#013365;stroke-width:1.07682347;fill-opacity:1"
     d="m 212.48112,320.93375 c -0.14609,-15.74079 -0.21934,-30.03004 -0.16271,-31.75387 0.23897,-7.27601 8.5351,-11.19787 30.76929,-14.54567 20.91466,-3.14912 38.16278,-9.60947 59.5413,-22.30147 8.56963,-5.08762 11.90318,-9.6767 11.94122,-16.43873 0.10554,-18.74553 -44.06477,-28.62242 -67.44486,-15.08132 -18.09297,10.47894 -15.57842,25.24691 5.70374,33.49831 8.19784,3.17841 8.91923,3.28421 22.39225,3.28421 10.60162,0 13.63126,0.26557 12.70437,1.11362 -1.94586,1.78039 -13.38257,2.42594 -21.98739,1.24111 -10.29473,-1.41756 -20.6836,-5.45418 -26.39771,-10.25691 l -4.55986,-3.83259 v 14.07794 c 0,8.75972 -0.46683,14.07794 -1.23575,14.07794 -0.78726,0 -1.23571,-7.67565 -1.23571,-21.15024 0,-24.19486 0.38467,-25.37599 10.45696,-32.10835 16.67257,-11.144 47.57005,-11.13543 64.34909,0.0177 7.52485,5.00188 10.90216,10.70283 10.19211,17.2045 -0.96077,8.79749 -8.08234,14.52632 -32.56981,26.20027 -13.38665,6.38186 -26.78836,10.32807 -44.60014,13.13278 -14.70048,2.3148 -19.38504,3.85886 -23.04636,7.59627 -2.7224,2.77893 -2.58481,0.8862 -2.30851,31.75765 l 0.22638,25.29129 4.634,-3.30727 c 7.28742,-5.20098 10.29714,-6.27923 32.85474,-11.7706 37.47367,-9.12249 57.71087,-18.40222 61.25205,-28.08699 0.79785,-2.18199 1.3503,-13.34377 1.36564,-27.59219 0.0149,-13.81799 0.53193,-24.5226 1.2237,-25.33542 0.78905,-0.92714 1.20023,7.55949 1.20473,24.86626 0.005,25.62846 -0.0646,26.39028 -2.90251,31.01812 -6.47654,10.56132 -28.61355,20.12028 -64.90605,28.02698 -19.53604,4.25611 -28.19419,8.38351 -34.59566,16.49198 l -2.59286,3.28421 z M 4.5865726,332.92349 c -1.5945815,-1.7287 -1.9236721,-5.49713 -1.9236721,-22.02796 v -19.94249 l 3.1697797,0.91512 c 1.7637645,0.5092 17.3855308,0.91513 35.2183978,0.91513 h 32.04862 v 4.22258 4.22256 h -6.178666 -6.178666 v 5.16092 5.16092 h 6.178666 6.178666 v 5.16092 5.16092 h 6.731959 6.731939 l 0.373529,-4.92635 0.373503,-4.92632 6.487606,-0.28363 6.487596,-0.28362 v -5.11188 -5.11188 h -6.79654 -6.796525 v -4.22256 -4.22258 h 32.048625 c 17.83285,0 33.45463,-0.40593 35.21839,-0.91513 l 3.16978,-0.91512 V 311.855 c 0,15.00594 -0.41831,21.21958 -1.4829,22.02797 -1.12024,0.85066 -19.53647,1.12602 -75.309647,1.12602 H 6.510242 Z m 0.5477941,-44.83195 c -2.1419365,-1.62646 -2.4714662,-3.12781 -2.4714662,-11.26017 0,-14.57979 -8.4918521,-13.1369 77.3145615,-13.1369 47.524448,0 73.192268,0.33351 74.761858,0.97136 2.14845,0.87311 2.39024,2.05285 2.39024,11.66235 0,8.46794 -0.40381,10.99759 -1.94188,12.16552 -1.72138,1.30713 -10.20948,1.47455 -74.76186,1.47455 -71.172343,0 -72.875907,-0.0426 -75.2914533,-1.87671 z M 55.799433,255.18765 c 0,-9.63157 -0.799286,-9.32181 24.052015,-9.32181 25.588862,0 25.377322,-0.0749 25.377322,8.98135 v 6.03225 h -4.32508 c -4.302169,0 -4.325076,-0.0223 -4.325076,-4.22258 v -4.22257 H 80.51409 64.449566 v 4.22257 c 0,4.20023 -0.02287,4.22258 -4.325067,4.22258 h -4.325066 z m 211.619307,-13.5358 c -3.2613,-1.07638 -4.01612,-1.85902 -4.01612,-4.16421 0,-3.16447 3.21639,-5.29406 9.41836,-6.23594 4.33651,-0.65859 12.4964,1.61221 13.59334,3.78287 3.07093,6.07681 -8.46113,10.09409 -18.99558,6.61728 z M 85.457028,207.90686 c 0,-20.3702 -0.728972,-23.03369 -6.304099,-23.03369 -1.889745,0 -3.885783,0.52783 -4.435635,1.17295 -0.549853,0.64512 -1.285679,6.95134 -1.635156,14.01383 -0.590706,11.93695 -0.845092,13.01036 -3.61368,15.24817 -4.00302,3.23559 -9.747699,3.23037 -13.762558,-0.0125 -2.995788,-2.41976 -2.995802,-2.41987 -3.378445,-27.68129 -0.378271,-24.97388 -0.353654,-25.26155 2.162531,-25.26155 2.506438,0 2.545178,0.38281 2.545178,25.14775 0,26.41548 0.19977,27.39979 5.560802,27.39979 4.752173,0 5.559317,-1.75449 5.590286,-12.15162 0.03647,-12.24838 1.338063,-16.76803 5.640523,-19.58624 4.028033,-2.63844 8.43758,-2.17168 12.557046,1.32917 2.695829,2.291 2.780406,2.96067 2.780406,22.01588 0,16.84375 -0.264957,19.65298 -1.853599,19.65298 -1.584118,0 -1.8536,-2.65374 -1.8536,-18.25365 z M 232.19241,177.67981 c -0.31674,-11.60036 -0.99853,-17.16704 -2.56675,-20.9571 -1.17447,-2.83851 -2.47963,-9.70016 -2.90037,-15.24817 l -0.76492,-10.08724 h 8.39717 8.39717 l -0.66845,11.49477 c -0.49266,8.47123 -1.3524,12.85227 -3.26851,16.65568 -2.1993,4.36552 -2.60012,7.20402 -2.60065,18.41751 -4.8e-4,10.4508 -0.38084,13.49617 -1.797,14.38866 -1.55659,0.98096 -1.85395,-0.97635 -2.22769,-14.66411 z m 83.97597,-0.44121 c -0.29032,-9.78979 -1.24066,-18.91512 -2.38089,-22.86175 -1.04373,-3.61264 -2.24504,-10.2632 -2.66956,-14.779 l -0.77187,-8.21055 h 8.84247 8.84247 l -0.74531,10.08724 c -0.40993,5.54801 -1.6975,12.40966 -2.86128,15.24817 -1.47501,3.5976 -2.25901,9.46386 -2.58821,19.36588 -0.41585,12.50933 -0.75348,14.39826 -2.82842,15.82416 -2.3076,1.58577 -2.36614,1.28324 -2.8394,-14.67415 z m -155.08448,9.32362 c -0.97747,-0.74225 -1.48288,-4.72115 -1.48288,-11.67399 0,-6.01977 -0.53047,-10.79693 -1.23572,-11.1279 -0.71995,-0.33786 -1.23574,-5.60541 -1.23574,-12.6198 0,-8.37399 -0.75249,-14.81697 -2.47147,-21.16076 -2.29393,-8.46577 -2.47145,-12.78676 -2.47145,-60.157598 0,-49.785588 0.0605,-51.082725 2.47145,-52.913417 1.91552,-1.454545 4.1191,-1.876698 9.79618,-1.876698 6.45455,0 7.63119,0.295858 9.9045,2.490409 2.49796,2.411429 2.56941,3.340982 2.25221,29.310901 -0.30145,24.682895 -0.49991,26.845669 -2.4901,27.136379 -1.95894,0.286159 -2.16252,-0.706465 -2.16252,-10.543919 V 52.566011 h -8.03227 -8.03228 v 12.198535 12.198539 h 10.50374 10.50374 l -0.0161,19.470733 c -0.014,16.213332 -0.44661,20.962062 -2.58876,28.385052 -1.70625,5.91246 -2.78363,13.81201 -3.19938,23.45871 -0.34477,7.99941 -1.12611,14.94555 -1.73631,15.43583 -0.61019,0.4903 -1.10944,5.42166 -1.10944,10.95857 0,7.90082 -0.41788,10.38446 -1.94188,11.5417 -2.33061,1.76975 -3.27111,1.83248 -5.22538,0.34854 z M 48.385031,148.74675 v -9.85267 h 6.178669 6.178666 v 9.85267 9.85266 H 54.5637 48.385031 Z m 3.707201,-17.35945 c 0,-2.7108 0.514894,-3.7534 1.8536,-3.7534 1.338708,0 1.853601,1.0426 1.853601,3.7534 0,2.71078 -0.514893,3.75339 -1.853601,3.75339 -1.338706,0 -1.8536,-1.04261 -1.8536,-3.75339 z m 248.382388,-7.50681 v -5.63007 h 17.30026 17.30028 v 5.63007 5.63012 h -17.30028 -17.30026 z m -74.55591,4.06619 c -0.45309,-0.34405 -0.82384,-22.7027 -0.82384,-49.685875 V 29.200482 l -7.39321,-0.635153 c -4.06627,-0.349335 -8.37589,-1.183273 -9.57693,-1.853195 -2.01494,-1.123917 -1.9151,-1.295912 1.29236,-2.225727 8.90709,-2.582097 48.23882,-1.994885 51.8861,0.774648 2.01292,1.528507 0.6196,2.011397 -8.89911,3.084185 l -8.77318,0.988769 v 49.619122 49.619119 h -8.44419 c -4.6443,0 -8.81491,-0.2815 -9.268,-0.62557 z M 33.556232,120.1271 v -4.69173 h 21.625332 21.625337 v 4.69173 4.69177 H 55.181564 33.556232 Z M 300.47462,72.328832 v -43.10655 l -5.35636,-0.609934 c -11.13842,-1.268342 -10.54058,-3.608707 1.20655,-4.723202 8.18155,-0.776218 47.32167,-0.03874 50.2331,0.946496 3.76283,1.273344 1.58539,2.82803 -5.09732,3.639459 l -6.38543,0.775334 v 13.065312 13.065311 h -9.26799 c -5.35485,0 -9.26802,0.396191 -9.26802,0.938349 0,0.542157 3.91317,0.938349 9.26802,0.938349 8.37497,0 9.26799,0.176867 9.26799,1.835588 0,1.627745 -1.01445,1.866807 -8.95906,2.111286 -4.92751,0.151632 -8.95909,0.697952 -8.95909,1.214043 0,0.516093 4.03158,1.062414 8.95909,1.214046 7.94461,0.24448 8.95906,0.483541 8.95906,2.111285 0,1.658722 -0.89302,1.835589 -9.26799,1.835589 -5.35485,0 -9.26802,0.396191 -9.26802,0.938348 0,0.542158 3.91317,0.93835 9.26802,0.93835 9.06202,0 9.26799,0.05212 9.26799,2.34587 0,2.29374 -0.20597,2.345873 -9.26799,2.345873 -5.35485,0 -9.26802,0.396195 -9.26802,0.93835 0,0.542156 3.91317,0.93835 9.26802,0.93835 9.06202,0 9.26799,0.05213 9.26799,2.345868 0,2.293742 -0.20597,2.345868 -9.26799,2.345868 -5.35485,0 -9.26802,0.396195 -9.26802,0.93835 0,0.542163 3.91317,0.93835 9.26802,0.93835 9.06202,0 9.26799,0.05214 9.26799,2.345876 0,2.295365 -0.20111,2.345874 -9.34092,2.345874 -5.91263,0 -9.06065,0.344387 -8.57723,0.938343 0.42007,0.516095 4.62348,0.938351 9.34092,0.938351 7.75341,0 8.57723,0.180252 8.57723,1.8767 0,1.696434 -0.82382,1.876693 -8.57723,1.876693 -4.71744,0 -8.92085,0.422257 -9.34092,0.93835 -0.48342,0.593947 2.6646,0.938347 8.57723,0.938347 9.13981,0 9.34092,0.05049 9.34092,2.345871 0,2.293734 -0.20597,2.345866 -9.26799,2.345866 -5.35485,0 -9.26802,0.396199 -9.26802,0.938359 0,0.54216 3.91317,0.93834 9.26802,0.93834 9.06202,0 9.26799,0.0522 9.26799,2.34586 0,2.29375 -0.20597,2.34588 -9.26799,2.34588 -5.35485,0 -9.26802,0.39619 -9.26802,0.93837 0,0.54215 3.91317,0.93833 9.26802,0.93833 h 9.26799 v 3.75341 3.75338 H 317.77488 300.47462 Z M 33.556232,108.93156 c 0,-3.53164 -0.407952,-3.90855 -9.576933,-8.84841 C 18.711987,97.245344 12.671649,93.703965 10.55633,92.213415 3.4630224,87.215183 3.2807681,85.975195 3.2807681,42.713348 V 3.3026988 H 53.945832 104.61089 V 43.651699 c 0,47.450961 1.04333,43.754338 -15.236636,53.985788 -9.76158,6.134863 -10.768668,7.078993 -11.331626,10.623463 -0.893466,5.62548 -4.201592,5.33292 -4.693535,-0.41505 l -0.368471,-4.30529 11.970163,-7.385967 C 92.421632,91.544891 97.553342,87.619387 98.603383,85.711067 99.928921,83.302084 100.28583,74.58512 100.28583,44.620186 V 6.5869187 H 53.945832 7.6058343 V 44.620186 c 0,30.320508 0.3478227,38.665388 1.7151865,41.150392 1.2116712,2.202058 5.5648762,5.247483 14.8287982,10.373968 l 13.113613,7.256854 v 4.60944 c 0,3.47176 -0.457515,4.60948 -1.853598,4.60948 -1.333296,0 -1.853602,-1.03542 -1.853602,-3.68876 z m -18.536,-65.279861 V 31.922337 h 38.9256 38.925595 V 43.651699 55.381058 H 53.945832 15.020232 Z M 307.52021,21.007643 c -0.47681,-0.36205 -0.86693,-3.472928 -0.86693,-6.913059 V 7.8398019 l -5.86973,-0.8610271 c -6.81842,-1.0001929 -7.99255,-3.3129477 -2.16254,-4.2596025 9.26073,-1.5037049 42.26479,-0.4778868 44.7248,1.3901175 1.50508,1.1428826 -1.70337,2.6166296 -6.83431,3.1392124 l -5.04157,0.5134821 -0.35993,6.6846697 -0.35993,6.68467 -11.18147,0.267297 c -6.14985,0.147014 -11.57162,-0.02894 -12.04839,-0.390978 z m -79.95385,-6.943384 c 0,-5.4351341 -0.38113,-6.7010548 -2.16253,-7.1832795 -4.15122,-1.1237174 -5.39822,-2.313738 -3.88007,-3.7027802 1.99588,-1.8261537 21.98796,-1.777633 25.26922,0.061329 2.6553,1.4881592 1.60177,2.9378345 -2.54423,3.5008499 -2.1615,0.2935265 -2.517,1.1875738 -2.83453,7.1286948 l -0.36307,6.793075 h -6.7424 -6.74239 z M 13.7845,15.032057 c 0,-1.838784 0.823825,-1.876697 40.7792,-1.876697 39.955369,0 40.77919,0.03791 40.77919,1.876697 0,1.838785 -0.823821,1.876698 -40.77919,1.876698 -39.955375,0 -40.7792,-0.03792 -40.7792,-1.876698 z"
     id="path894"
     inkscape:connector-curvature="0" /></svg>