<?xml version="1.0" encoding="UTF-8" standalone="no"?>
<!-- Generator: Adobe Illustrator 16.0.0, SVG Export Plug-In . SVG Version: 6.00 Build 0)  -->

<svg
   xmlns:dc="http://purl.org/dc/elements/1.1/"
   xmlns:cc="http://creativecommons.org/ns#"
   xmlns:rdf="http://www.w3.org/1999/02/22-rdf-syntax-ns#"
   xmlns:svg="http://www.w3.org/2000/svg"
   xmlns="http://www.w3.org/2000/svg"
   xmlns:sodipodi="http://sodipodi.sourceforge.net/DTD/sodipodi-0.dtd"
   xmlns:inkscape="http://www.inkscape.org/namespaces/inkscape"
   version="1.1"
   id="Capa_1"
   x="0px"
   y="0px"
   width="350.244px"
   height="350.244px"
   viewBox="0 0 350.244 350.244"
   style="enable-background:new 0 0 350.244 350.244;"
   xml:space="preserve"
   sodipodi:docname="mrd.svg"
   inkscape:version="0.92.2 (5c3e80d, 2017-08-06)"><metadata
     id="metadata4008"><rdf:RDF><cc:Work
         rdf:about=""><dc:format>image/svg+xml</dc:format><dc:type
           rdf:resource="http://purl.org/dc/dcmitype/StillImage" /><dc:title></dc:title></cc:Work></rdf:RDF></metadata><sodipodi:namedview
     pagecolor="#ffffff"
     bordercolor="#666666"
     borderopacity="1"
     objecttolerance="10"
     gridtolerance="10"
     guidetolerance="10"
     inkscape:pageopacity="0"
     inkscape:pageshadow="2"
     inkscape:window-width="1366"
     inkscape:window-height="715"
     id="namedview4004"
     showgrid="false"
     inkscape:zoom="1.347632"
     inkscape:cx="95.422619"
     inkscape:cy="152.89215"
     inkscape:window-x="-8"
     inkscape:window-y="-8"
     inkscape:window-maximized="1"
     inkscape:current-layer="Capa_1" /><g
     id="g3973" /><g
     id="g3975" /><g
     id="g3977" /><g
     id="g3979" /><g
     id="g3981" /><g
     id="g3983" /><g
     id="g3985" /><g
     id="g3987" /><g
     id="g3989" /><g
     id="g3991" /><g
     id="g3993" /><g
     id="g3995" /><g
     id="g3997" /><g
     id="g3999" /><g
     id="g4001" /><path
     style="fill:#013365;stroke-width:1.53792012;fill-opacity:1"
     d="m 44.100842,347.38336 c -1.268783,-0.46381 -3.864024,-2.25996 -5.7672,-3.99145 l -3.46032,-3.14819 0.04891,-150.83256 c 0.03768,-116.142601 0.4798,-151.39379 1.9224,-153.272732 4.151493,-5.407157 8.236423,-6.018408 40.220393,-6.018408 h 31.628459 v -7.765974 c 0,-9.515169 3.0591,-15.8236169 8.83291,-18.2152087 3.153,-1.3060141 20.92341,-1.6862463 64.03066,-1.3700623 l 59.66649,0.4376444 3.71034,4.3150407 c 3.02177,3.5142429 3.71034,6.0115919 3.71034,13.4567999 v 9.14176 h 32.85557 32.85556 l 4.05452,4.054517 4.05451,4.054515 V 188.85382 339.47857 l -4.49546,4.49546 -4.49545,4.49545 -133.53288,-0.12134 C 106.49752,348.28124 45.369626,347.84718 44.100842,347.38336 Z M 294.78182,190.06371 V 59.340501 h -23.0688 -23.0688 v 8.372798 c 0,6.633649 -0.77096,9.269106 -3.71165,12.687841 l -3.71163,4.31505 h -61.61502 -61.615 l -4.12942,-4.129423 c -3.21635,-3.216345 -4.28637,-6.021849 -4.83916,-12.687841 L 108.3126,59.340501 H 85.434243 62.555883 V 190.06371 320.78692 H 178.66885 294.78182 Z m -175.82727,96.82233 c -8.08778,-6.36187 -6.24045,-20.47222 3.19175,-24.37915 3.15043,-1.30498 20.11803,-1.68741 60.78704,-1.37009 l 56.41671,0.4402 4.18571,4.18735 c 6.10543,6.10781 5.80399,13.98044 -0.7599,19.84526 l -4.9456,4.41891 h -57.44035 c -55.51766,0 -57.57406,-0.1052 -61.43536,-3.14248 z m 1.05341,-53.71973 c -9.00724,-3.71105 -10.98531,-15.98577 -3.74317,-23.22793 l 4.49546,-4.49547 h 57.9086 57.90862 l 4.49545,4.49547 c 5.78455,5.78453 6.09176,13.46949 0.78518,19.64102 l -3.71029,4.31504 -57.42204,0.31487 c -31.58212,0.17319 -58.90514,-0.29617 -60.71781,-1.043 z m 49.36347,-57.64292 c -2.90062,-2.90063 -3.7749,-5.39395 -3.7749,-10.76544 0,-6.75845 -0.15482,-6.99056 -4.66316,-6.99056 -6.40313,0 -14.73971,-3.71338 -16.74393,-7.4583 -5.41022,-10.10908 0.8509,-20.2562 13.38818,-21.69762 l 7.24995,-0.83353 0.46596,-7.23696 c 0.8806,-13.67679 14.3302,-19.72732 23.49011,-10.56742 3.65906,3.65906 4.49546,5.80508 4.49546,11.5344 v 7.03894 h 7.03894 c 16.82104,0 22.57186,20.74509 7.49691,27.04381 -2.86525,1.19718 -7.30797,2.17668 -9.87269,2.17668 -4.50834,0 -4.66316,0.23211 -4.66316,6.99056 0,9.39944 -4.89372,14.54032 -13.84129,14.54032 -4.62929,0 -7.2888,-0.99731 -10.06638,-3.77488 z m 51.26794,-131.17761 0.44668,-12.68784 h -41.58604 -41.58604 v 12.04704 c 0,6.625873 0.47262,12.519659 1.05026,13.097305 0.57766,0.577648 19.09037,0.866008 41.13936,0.640801 l 40.08911,-0.409465 z"
     id="path1089"
     inkscape:connector-curvature="0" /></svg>