<?xml version="1.0" encoding="UTF-8" standalone="no"?>
<!-- Generator: Adobe Illustrator 16.0.0, SVG Export Plug-In . SVG Version: 6.00 Build 0)  -->

<svg
   xmlns:dc="http://purl.org/dc/elements/1.1/"
   xmlns:cc="http://creativecommons.org/ns#"
   xmlns:rdf="http://www.w3.org/1999/02/22-rdf-syntax-ns#"
   xmlns:svg="http://www.w3.org/2000/svg"
   xmlns="http://www.w3.org/2000/svg"
   xmlns:sodipodi="http://sodipodi.sourceforge.net/DTD/sodipodi-0.dtd"
   xmlns:inkscape="http://www.inkscape.org/namespaces/inkscape"
   version="1.1"
   id="Capa_1"
   x="0px"
   y="0px"
   width="350.244px"
   height="350.244px"
   viewBox="0 0 350.244 350.244"
   style="enable-background:new 0 0 350.244 350.244;"
   xml:space="preserve"
   sodipodi:docname="dialisis.svg"
   inkscape:version="0.92.2 (5c3e80d, 2017-08-06)"><metadata
     id="metadata4008"><rdf:RDF><cc:Work
         rdf:about=""><dc:format>image/svg+xml</dc:format><dc:type
           rdf:resource="http://purl.org/dc/dcmitype/StillImage" /><dc:title></dc:title></cc:Work></rdf:RDF></metadata><sodipodi:namedview
     pagecolor="#ffffff"
     bordercolor="#666666"
     borderopacity="1"
     objecttolerance="10"
     gridtolerance="10"
     guidetolerance="10"
     inkscape:pageopacity="0"
     inkscape:pageshadow="2"
     inkscape:window-width="1366"
     inkscape:window-height="715"
     id="namedview4004"
     showgrid="false"
     inkscape:zoom="1.347632"
     inkscape:cx="95.422619"
     inkscape:cy="175.15342"
     inkscape:window-x="-8"
     inkscape:window-y="-8"
     inkscape:window-maximized="1"
     inkscape:current-layer="Capa_1" /><g
     id="g3973" /><g
     id="g3975" /><g
     id="g3977" /><g
     id="g3979" /><g
     id="g3981" /><g
     id="g3983" /><g
     id="g3985" /><g
     id="g3987" /><g
     id="g3989" /><g
     id="g3991" /><g
     id="g3993" /><g
     id="g3995" /><g
     id="g3997" /><g
     id="g3999" /><g
     id="g4001" /><path
     style="fill:#013365;stroke-width:2.04995966;fill-opacity:1"
     d="M 77.683823,347.49301 C 62.056325,342.67868 49.576745,328.83261 46.692657,313.10834 l -1.222001,-6.66237 h 14.298468 c 8.580126,0 14.298468,0.85713 14.298468,2.14313 0,1.17872 2.264283,4.40741 5.031729,7.17486 l 5.031707,5.03172 h 91.409562 91.40956 l 5.03171,-5.03172 c 2.76744,-2.76745 5.03173,-5.99614 5.03173,-7.17486 0,-1.286 5.71834,-2.14313 14.29846,-2.14313 h 14.29847 l -1.222,6.66237 c -2.15287,11.73753 -10.46613,23.61473 -20.76705,29.66992 l -9.68282,5.69188 -95.32312,0.37535 c -52.42771,0.20645 -97.846989,-0.40218 -100.931707,-1.35248 z M 24.748844,290.17888 C 14.445747,287.00054 10.114941,283.44374 6.2896755,275.01869 2.8683544,267.48335 2.403731,261.19463 2.3640233,221.88513 L 2.3189242,177.2985 H 16.668641 31.018358 v 43.04916 43.04916 h 7.093763 7.093782 l 0.593566,-114.28528 0.593586,-114.285231 5.691877,-9.68282 C 55.775905,18.864525 61.180665,13.459765 67.459629,9.7687923 L 77.14245,4.0769154 h 98.39806 98.39805 l 9.68282,5.6918769 c 6.27897,3.6909727 11.68373,9.0957327 15.3747,15.3746967 l 5.69188,9.68282 0.59358,114.285231 0.59357,114.28528 h 7.09378 7.09377 V 220.34766 177.2985 h 14.34971 14.34972 l -0.0451,44.58663 c -0.0398,39.36269 -0.50123,45.59149 -3.93883,53.16302 -7.68044,16.91674 1.8614,15.97577 -166.16279,16.38588 -81.742141,0.19946 -150.982151,-0.36532 -153.86669,-1.25515 z M 277.01359,204.46047 V 145.52411 H 175.54059 74.067592 v 58.93636 58.93635 h 101.472998 101.473 z M 155.8248,239.03848 c -7.0772,-7.07722 -7.95866,-9.07011 -7.95866,-17.99379 0,-10.39073 8.38608,-29.67477 21.56522,-49.58978 6.79218,-10.26368 6.0134,-10.7461 19.36025,11.99347 11.03196,18.79563 14.42343,27.8286 14.42343,38.4158 0,7.97176 -1.07421,10.28988 -7.95865,17.17432 -7.3947,7.39467 -8.79181,7.95864 -19.7158,7.95864 -10.92399,0 -12.32109,-0.56397 -19.71579,-7.95866 z M 265.95079,117.76907 c 10.23572,-3.89162 10.92738,-6.56762 10.99761,-42.54925 0.064,-32.774447 -0.0297,-33.499989 -4.96654,-38.436743 l -5.03171,-5.031708 H 175.54059 84.131028 l -5.031707,5.031708 c -4.936754,4.936754 -5.030499,5.662296 -4.96654,38.436743 0.06949,35.55175 0.820722,38.62681 10.370582,42.44517 6.925317,2.76899 174.185857,2.86492 181.447427,0.10414 z"
     id="path907"
     inkscape:connector-curvature="0" /></svg>