<?xml version="1.0" encoding="iso-8859-1"?>
<!-- Generator: Adobe Illustrator 19.0.0, SVG Export Plug-In . SVG Version: 6.00 Build 0)  -->
<svg xmlns="http://www.w3.org/2000/svg" xmlns:xlink="http://www.w3.org/1999/xlink" version="1.1" id="Layer_1" x="0px" y="0px" viewBox="0 0 512.001 512.001" style="enable-background:new 0 0 512.001 512.001;" xml:space="preserve" width="512px" height="512px">
<g>
	<g>
		<path d="M230.294,137.104c-4.142,0-7.5,3.358-7.5,7.5v8.569c0,4.142,3.358,7.5,7.5,7.5c4.142,0,7.5-3.358,7.5-7.5v-8.569    C237.794,140.461,234.435,137.104,230.294,137.104z" fill="#003366"/>
	</g>
</g>
<g>
	<g>
		<path d="M281.708,137.103c-4.142,0-7.5,3.358-7.5,7.5v8.569c0,4.142,3.358,7.5,7.5,7.5c4.142,0,7.5-3.358,7.5-7.5v-8.569    C289.208,140.461,285.849,137.103,281.708,137.103z" fill="#003366"/>
	</g>
</g>
<g>
	<g>
		<path d="M276.058,173.57c-2.933-2.925-7.682-2.92-10.607,0.013c-1.343,1.346-4.873,2.795-9.451,2.795s-8.108-1.449-9.451-2.795    c-2.926-2.932-7.674-2.938-10.607-0.013c-2.933,2.926-2.938,7.674-0.013,10.607c4.499,4.509,12.001,7.202,20.071,7.202    s15.572-2.692,20.071-7.202C278.996,181.244,278.99,176.496,276.058,173.57z" fill="#003366"/>
	</g>
</g>
<g>
	<g>
		<path d="M346.607,259.5l-51.677-22.968c-3.477-1.545-5.723-5.002-5.723-8.807v-15.73c18.095-10.145,31.093-28.346,33.711-50.009    c4.875-40.336-22.74-45.755-49.447-50.995c-15.172-2.977-32.368-6.351-47.889-15.663c-3.431-2.059-7.878-1.061-10.099,2.271    c-0.134,0.2-11.568,17.127-29.104,26.919v-5.622c0-38.389,31.231-69.621,69.621-69.621s69.621,31.232,69.621,69.621v8.569    c0,4.142,3.358,7.5,7.5,7.5c4.142,0,7.5-3.358,7.5-7.5v-8.569c0-28.265-13.944-53.319-35.299-68.696    c0.677-2.759,1.023-5.578,1.023-8.425C306.346,18.741,283.76,0,256,0s-50.345,18.741-50.345,41.776    c0,2.844,0.35,5.663,1.027,8.422c-21.357,15.376-35.302,40.432-35.302,68.698v17.138c0,2.411,1.159,4.675,3.115,6.084    c1.955,1.409,4.47,1.792,6.757,1.031c20.409-6.803,35.6-23.041,42.549-31.664c15.927,8.169,32.22,11.367,46.784,14.225    c28.913,5.673,40.523,8.991,37.443,34.476c-3.133,25.922-25.5,45.469-52.027,45.469c-28.939,0-52.483-23.544-52.483-52.483    c0-4.142-3.358-7.5-7.5-7.5c-4.142,0-7.5,3.358-7.5,7.5c0,25.143,13.832,47.103,34.276,58.712v15.84    c0,3.805-2.247,7.262-5.723,8.807L165.393,259.5c-11.98,5.324-19.721,17.235-19.721,30.345v26.139    c0,6.152,3.479,11.501,8.569,14.2v48.769c0,7.802,3.572,14.971,9.801,19.669c2.361,1.781,4.963,3.08,7.687,3.911    c-0.232,2.56-0.35,5.135-0.35,7.708c0,19.132,6.39,36.796,17.138,50.986V504.5c0,4.142,3.358,7.5,7.5,7.5    c4.142,0,7.5-3.358,7.5-7.5v-27.953c12.594,9.99,28.078,16.472,44.983,17.965v9.989c0,4.142,3.358,7.5,7.5,7.5    c4.142,0,7.5-3.358,7.5-7.5v-9.989c16.905-1.493,32.389-7.975,44.983-17.965V504.5c0,4.142,3.358,7.5,7.5,7.5    c4.142,0,7.5-3.358,7.5-7.5v-43.273c10.747-14.19,17.138-31.853,17.138-50.986c0-2.573-0.12-5.148-0.351-7.708    c2.725-0.832,5.327-2.131,7.688-3.912c6.229-4.698,9.801-11.868,9.801-19.669v-48.769c5.09-2.699,8.569-8.049,8.569-14.2v-26.139    C366.328,276.735,358.588,264.824,346.607,259.5z M256,15c19.489,0,35.345,12.012,35.345,26.776c0,0.086-0.011,0.172-0.012,0.259    c-10.761-4.967-22.724-7.759-35.332-7.759c-12.609,0-24.572,2.792-35.333,7.759c-0.002-0.087-0.013-0.172-0.013-0.259    C220.656,27.012,236.511,15,256,15z M237.794,227.724v-9.585c5.796,1.627,11.898,2.516,18.207,2.516    c6.292,0,12.4-0.864,18.207-2.474v9.543c0,9.598,5.598,18.319,14.284,22.344c-5.668,8.716-17.398,24.415-32.49,31.961    c-15.036-7.528-26.795-23.246-32.482-31.966C232.201,246.036,237.794,237.317,237.794,227.724z M173.074,386.645    c-2.437-1.838-3.834-4.643-3.834-7.694v-46.899h0.001h19.276v26.776c0,4.142,3.358,7.5,7.5,7.5h21.52    c2.351,0,4.566-1.103,5.983-2.978c2.685-3.553,6.715-5.591,11.058-5.591c4.355,0,8.379,1.982,11.041,5.439    c2.707,3.514,3.544,7.919,2.359,12.403c-1.159,4.388-4.718,8.058-9.067,9.35c-5.591,1.663-11.15,0.05-14.867-4.313    c-1.906-2.237-4.942-3.155-7.77-2.348l-34.748,9.928C178.594,389.056,175.511,388.483,173.074,386.645z M256,479.862    c-38.389,0-69.621-31.232-69.621-69.621c0-2.656,0.168-5.31,0.467-7.941l29.355-8.388c7.411,6.196,17.352,8.279,26.983,5.418    c4.982-1.481,9.39-4.328,12.816-8.081c3.426,3.753,7.834,6.6,12.816,8.081c9.63,2.86,19.572,0.778,26.982-5.418l29.357,8.388    c0.298,2.63,0.465,5.285,0.465,7.941C325.622,448.63,294.39,479.862,256,479.862z M342.76,378.953    c0,3.051-1.398,5.856-3.834,7.693c-2.437,1.838-5.516,2.412-8.452,1.573l-34.748-9.928c-2.827-0.808-5.864,0.109-7.77,2.348    c-3.716,4.362-9.275,5.975-14.866,4.313c-4.349-1.292-7.908-4.962-9.067-9.35c-1.185-4.484-0.347-8.889,2.359-12.403    c2.662-3.457,6.686-5.439,11.041-5.439c4.342,0,8.373,2.038,11.058,5.591c1.417,1.875,3.632,2.978,5.983,2.978h21.52    c4.142,0,7.5-3.358,7.5-7.5v-26.776h19.276V378.953z M351.328,315.983c0,0.589-0.479,1.069-1.069,1.069h-26.776v-9.638    c0-4.142-3.358-7.5-7.5-7.5c-4.142,0-7.5,3.358-7.5,7.5v43.914h-10.608c-5.41-5.487-12.677-8.569-20.453-8.569    c-8.263,0-15.943,3.442-21.422,9.503c-5.479-6.062-13.16-9.503-21.422-9.503c-7.776,0-15.042,3.082-20.453,8.569h-10.608v-43.914    c0-4.142-3.358-7.5-7.5-7.5c-4.142,0-7.5,3.358-7.5,7.5v9.638h-26.776c-0.589,0-1.069-0.479-1.069-1.069v-26.139    c0-7.188,4.244-13.718,10.813-16.638l38.162-16.961c6.339,10.135,21.948,31.987,43.468,40.953    c0.923,0.385,1.904,0.577,2.885,0.577c0.981,0,1.961-0.192,2.885-0.577c21.52-8.967,37.129-30.819,43.468-40.953l38.162,16.961    c6.568,2.919,10.813,9.45,10.813,16.638V315.983z" fill="#003366"/>
	</g>
</g>
<g>
</g>
<g>
</g>
<g>
</g>
<g>
</g>
<g>
</g>
<g>
</g>
<g>
</g>
<g>
</g>
<g>
</g>
<g>
</g>
<g>
</g>
<g>
</g>
<g>
</g>
<g>
</g>
<g>
</g>
</svg>
