<?xml version="1.0" encoding="UTF-8" standalone="no"?>
<!-- Generator: Adobe Illustrator 16.0.0, SVG Export Plug-In . SVG Version: 6.00 Build 0)  -->

<svg
   xmlns:dc="http://purl.org/dc/elements/1.1/"
   xmlns:cc="http://creativecommons.org/ns#"
   xmlns:rdf="http://www.w3.org/1999/02/22-rdf-syntax-ns#"
   xmlns:svg="http://www.w3.org/2000/svg"
   xmlns="http://www.w3.org/2000/svg"
   xmlns:sodipodi="http://sodipodi.sourceforge.net/DTD/sodipodi-0.dtd"
   xmlns:inkscape="http://www.inkscape.org/namespaces/inkscape"
   version="1.1"
   id="Capa_1"
   x="0px"
   y="0px"
   width="350.244px"
   height="350.244px"
   viewBox="0 0 350.244 350.244"
   style="enable-background:new 0 0 350.244 350.244;"
   xml:space="preserve"
   sodipodi:docname="icu.svg"
   inkscape:version="0.92.2 (5c3e80d, 2017-08-06)"><metadata
     id="metadata4008"><rdf:RDF><cc:Work
         rdf:about=""><dc:format>image/svg+xml</dc:format><dc:type
           rdf:resource="http://purl.org/dc/dcmitype/StillImage" /><dc:title></dc:title></cc:Work></rdf:RDF></metadata><sodipodi:namedview
     pagecolor="#ffffff"
     bordercolor="#666666"
     borderopacity="1"
     objecttolerance="10"
     gridtolerance="10"
     guidetolerance="10"
     inkscape:pageopacity="0"
     inkscape:pageshadow="2"
     inkscape:window-width="1366"
     inkscape:window-height="715"
     id="namedview4004"
     showgrid="false"
     inkscape:zoom="1.347632"
     inkscape:cx="95.422619"
     inkscape:cy="152.89215"
     inkscape:window-x="-8"
     inkscape:window-y="-8"
     inkscape:window-maximized="1"
     inkscape:current-layer="Capa_1" /><g
     id="g3973" /><g
     id="g3975" /><g
     id="g3977" /><g
     id="g3979" /><g
     id="g3981" /><g
     id="g3983" /><g
     id="g3985" /><g
     id="g3987" /><g
     id="g3989" /><g
     id="g3991" /><g
     id="g3993" /><g
     id="g3995" /><g
     id="g3997" /><g
     id="g3999" /><g
     id="g4001" /><path
     style="fill:#013365;fill-opacity:1;stroke-width:1.53494835"
     d="M 16.638346,316.26357 C 14.215648,315.5358 10.82482,313.69705 9.1031913,312.17746 1.6608074,305.60845 1.7736341,307.75094 1.7761931,173.05693 1.7777346,55.623086 1.9721868,46.159089 4.4739206,41.294864 5.956345,38.412503 9.1277938,34.629796 11.521574,32.888849 c 4.335788,-3.153341 4.958207,-3.165385 163.677566,-3.165385 158.71936,0 159.3418,0.01223 163.67757,3.165385 2.39378,1.740947 5.56523,5.523654 7.04767,8.406015 2.50196,4.864668 2.69532,14.341396 2.69532,132.095066 0,117.75367 -0.19336,127.2304 -2.69532,132.09507 -1.48244,2.88235 -4.65366,6.66505 -7.04715,8.40601 -4.32838,3.14832 -5.19673,3.16681 -161.0929,3.43059 -86.207584,0.14581 -158.723271,-0.33025 -161.145984,-1.05803 z M 261.01967,298.4791 c 3.48264,-3.12477 3.53742,-4.84895 0.26784,-8.43088 -3.52302,-3.85958 -24.32261,-4.05309 -28.54392,-0.26555 -3.48264,3.12477 -3.53742,4.84896 -0.26784,8.43088 3.52302,3.85959 24.32261,4.05309 28.54392,0.26555 z m 54.42557,-0.48814 c 2.57934,-2.82574 2.59226,-3.26297 0.20339,-6.87765 -2.35995,-3.57092 -3.43423,-3.86007 -14.34121,-3.86007 -8.80755,0 -12.50332,0.63988 -14.60927,2.52943 -3.48265,3.12477 -3.53744,4.84896 -0.26785,8.43088 3.85248,4.22051 25.10812,4.05745 29.01494,-0.22259 z m 8.51432,-74.2093 v -52.773 l -20.42565,0.42644 -20.42565,0.42646 -5.43645,10.55763 c -10.25344,19.91232 -13.67779,17.71429 -21.34736,-13.70259 -2.86111,-11.7199 -5.70528,-21.85913 -6.32042,-22.53162 -0.61513,-0.6725 -3.82139,7.8341 -7.12502,18.90354 -5.01414,16.8008 -6.5972,20.34887 -9.58091,21.47358 -6.00087,2.262 -31.53947,1.65131 -35.12695,-0.83996 -1.73235,-1.20301 -5.10451,-6.74735 -7.49372,-12.32076 -2.38916,-5.57342 -4.87129,-9.57543 -5.5158,-8.89338 -0.64452,0.68204 -5.35352,15.2676 -10.46447,32.41231 -8.12661,27.26091 -10.84131,33.73655 -14.14283,33.73655 -3.5029,0 -6.01466,-6.01522 -11.57713,-27.72495 l -6.39445,-24.95688 -16.37996,-0.76418 c -9.00897,-0.42031 -16.99683,-1.45195 -17.75081,-2.29255 -0.75396,-0.84061 -3.31746,-6.17078 -5.69667,-11.84484 -2.37922,-5.67406 -4.806705,-10.31648 -5.394404,-10.31648 -0.587705,0 -3.673118,9.45677 -6.856452,21.01504 -5.921898,21.50159 -8.700434,27.8927 -12.126316,27.8927 -1.069241,0 -5.71203,-3.78271 -10.317328,-8.40602 l -8.373254,-8.40602 H 43.063142 26.438727 v 45.851 45.85099 H 175.19914 323.95956 Z M 170.27709,172.64694 c 4.61094,-15.50971 9.4181,-28.84646 10.68254,-29.63724 4.34,-2.71416 7.32074,0.49645 15.38367,16.56999 l 8.07758,16.10279 h 11.83087 11.83088 l 3.33144,-11.08066 c 14.19895,-47.22672 15.5433,-50.22891 21.15795,-47.24977 2.07361,1.10027 4.55264,8.49549 9.51386,28.38085 3.69023,14.79107 6.96387,26.89285 7.27474,26.89285 0.31087,0 1.72038,-2.23524 3.13223,-4.96719 1.41187,-2.73196 3.33737,-5.47249 4.27888,-6.09007 0.94152,-0.61758 11.94395,-1.13341 24.44984,-1.14628 l 22.73799,-0.0234 V 115.31202 70.225191 H 175.19914 26.438727 v 51.036779 c 0,45.12894 0.28226,51.14415 2.438423,51.96445 1.341124,0.51025 10.152797,0.92771 19.581478,0.92771 H 65.6017 l 5.034129,4.83753 c 3.722586,3.57719 5.232558,4.27401 5.795721,2.67464 0.418872,-1.18959 3.63834,-12.47936 7.154373,-25.08839 7.69267,-27.58707 8.172234,-28.6012 13.23311,-27.98429 3.385567,0.4127 4.827527,2.73686 11.198567,18.04991 l 7.31265,17.57622 16.25231,0.43185 c 13.07305,0.34737 16.70151,0.94533 18.54857,3.05673 1.26295,1.44368 3.87491,9.15865 5.80433,17.14437 3.50995,14.52717 4.47763,17.46151 5.44283,16.50457 0.28339,-0.28096 4.28786,-13.20059 8.8988,-28.71031 z"
     id="path1011"
     inkscape:connector-curvature="0" /></svg>