<?xml version="1.0" encoding="UTF-8" standalone="no"?>
<!-- Generator: Adobe Illustrator 16.0.0, SVG Export Plug-In . SVG Version: 6.00 Build 0)  -->

<svg
   xmlns:dc="http://purl.org/dc/elements/1.1/"
   xmlns:cc="http://creativecommons.org/ns#"
   xmlns:rdf="http://www.w3.org/1999/02/22-rdf-syntax-ns#"
   xmlns:svg="http://www.w3.org/2000/svg"
   xmlns="http://www.w3.org/2000/svg"
   xmlns:sodipodi="http://sodipodi.sourceforge.net/DTD/sodipodi-0.dtd"
   xmlns:inkscape="http://www.inkscape.org/namespaces/inkscape"
   version="1.1"
   id="Capa_1"
   x="0px"
   y="0px"
   width="350.244px"
   height="350.244px"
   viewBox="0 0 350.244 350.244"
   style="enable-background:new 0 0 350.244 350.244;"
   xml:space="preserve"
   sodipodi:docname="pharmacy.svg"
   inkscape:version="0.92.2 (5c3e80d, 2017-08-06)"><metadata
     id="metadata4008"><rdf:RDF><cc:Work
         rdf:about=""><dc:format>image/svg+xml</dc:format><dc:type
           rdf:resource="http://purl.org/dc/dcmitype/StillImage" /><dc:title></dc:title></cc:Work></rdf:RDF></metadata><sodipodi:namedview
     pagecolor="#ffffff"
     bordercolor="#666666"
     borderopacity="1"
     objecttolerance="10"
     gridtolerance="10"
     guidetolerance="10"
     inkscape:pageopacity="0"
     inkscape:pageshadow="2"
     inkscape:window-width="1366"
     inkscape:window-height="715"
     id="namedview4004"
     showgrid="false"
     inkscape:zoom="1.347632"
     inkscape:cx="95.422619"
     inkscape:cy="152.89215"
     inkscape:window-x="-8"
     inkscape:window-y="-8"
     inkscape:window-maximized="1"
     inkscape:current-layer="Capa_1" /><g
     id="g3973" /><g
     id="g3975" /><g
     id="g3977" /><g
     id="g3979" /><g
     id="g3981" /><g
     id="g3983" /><g
     id="g3985" /><g
     id="g3987" /><g
     id="g3989" /><g
     id="g3991" /><g
     id="g3993" /><g
     id="g3995" /><g
     id="g3997" /><g
     id="g3999" /><g
     id="g4001" /><path
     style="fill:#013365;stroke-width:1.5740006;fill-opacity:1"
     d="m 50.752497,317.59008 c 0,-0.48959 2.432965,-6.156 5.406582,-12.59201 l 5.406582,-11.70184 100.444959,0.0208 100.44496,0.0208 5.78378,12.57125 5.78377,12.57123 H 162.38782 c -61.39944,-2e-5 -111.635323,-0.40059 -111.635323,-0.89018 z m 0.527495,-37.27936 C 31.994408,260.57384 18.370409,237.26957 10.755615,210.99248 6.9021156,197.69486 3.5324793,176.81615 3.5324793,166.23697 v -5.15679 H 162.44731 321.36216 l -0.85105,10.62451 c -3.56018,44.44563 -18.45569,78.68731 -47.58721,109.39304 l -8.58651,9.0505 H 162.61498 60.892556 Z m 124.877468,-14.75359 2.7055,-4.12911 3.36137,4.21557 c 3.0427,3.81593 4.20918,4.17006 12.30428,3.73561 l 8.94292,-0.47998 -7.10348,-10.57508 c -3.90692,-5.81629 -7.1035,-11.39299 -7.1035,-12.39267 0,-0.99968 3.18735,-7.0676 7.08301,-13.48426 3.89565,-6.41667 7.083,-11.9957 7.083,-12.39784 0,-0.40214 -3.83789,-0.73117 -8.52863,-0.73117 -8.11599,0 -8.70043,0.27799 -12.07948,5.7454 l -3.55085,5.74539 -3.6527,-4.56489 c -4.0876,-5.10838 -4.71872,-8.4999 -1.58172,-8.4999 4.06919,0 9.28338,-7.55037 9.98694,-14.46149 0.82969,-8.15022 -3.50652,-16.23299 -10.04155,-18.71759 -2.3444,-0.89134 -11.19782,-2.04313 -19.67429,-2.55954 l -15.41175,-0.93892 v 30.93077 30.93078 h 7.87 7.87001 l 0.0299,-11.4115 0.0299,-11.41151 4.38517,7.083 c 2.41184,3.89566 5.89875,9.5791 7.74868,12.62988 l 3.36351,5.54686 -7.75776,12.16065 -7.75778,12.16063 h 9.3869 c 8.39349,0 9.67323,-0.43699 12.09239,-4.12909 z m -21.52092,-61.97894 c 0,-7.27435 0.28807,-7.87 3.80626,-7.87 6.81571,0 8.78574,1.61357 8.78574,7.19603 0,5.60711 -3.21066,8.54398 -9.34052,8.54398 -2.85244,0 -3.25148,-0.96586 -3.25148,-7.87001 z m 81.11518,-64.10713 c 7.42517,-10.19035 25.32488,-34.95363 39.7771,-55.029532 14.45222,-20.075906 26.76637,-36.543887 27.36477,-36.595515 2.60513,-0.224783 31.26583,19.430833 30.61358,20.994902 -0.39779,0.953829 -11.69694,21.212492 -25.10925,45.019255 l -24.38602,43.28501 -30.88026,0.42689 -30.88027,0.42688 z m 86.76207,-83.832044 c -9.3873,-5.991669 -18.06398,-11.720685 -19.2815,-12.731131 -3.24373,-2.69206 -2.71555,-8.942416 0.92009,-10.888149 3.78949,-2.028068 6.55699,-0.722985 28.32341,13.356639 15.55213,10.05991 19.32089,14.615572 15.70013,18.978308 -3.36442,4.053886 -8.26149,2.390702 -25.66213,-8.715667 z"
     id="path1173"
     inkscape:connector-curvature="0" /></svg>